<svg width="69" height="14" viewBox="0 0 69 14" fill="none" xmlns="http://www.w3.org/2000/svg">
<g id="Symbols" clip-path="url(#clip0_75_17006)">
<g id="Battery">
<path id="Rectangle" opacity="0.4" fill-rule="evenodd" clip-rule="evenodd" d="M46.5894 1.16016H61.4106C62.6587 1.16016 63.1113 1.29011 63.5676 1.53414C64.0239 1.77817 64.382 2.13628 64.626 2.59257C64.87 3.04887 65 3.50147 65 4.7496V9.07072C65 10.3188 64.87 10.7714 64.626 11.2277C64.382 11.684 64.0239 12.0421 63.5676 12.2862C63.1113 12.5302 62.6587 12.6602 61.4106 12.6602H46.5894C45.3413 12.6602 44.8887 12.5302 44.4324 12.2862C43.9761 12.0421 43.618 11.684 43.374 11.2277C43.13 10.7714 43 10.3188 43 9.07072V4.7496C43 3.50147 43.13 3.04887 43.374 2.59257C43.618 2.13628 43.9761 1.77817 44.4324 1.53414C44.8887 1.29011 45.3413 1.16016 46.5894 1.16016ZM46.5894 2.16016C45.6025 2.16016 45.2579 2.22669 44.904 2.41596C44.622 2.56679 44.4066 2.78214 44.2558 3.06417C44.0665 3.41806 44 3.76262 44 4.7496V9.07072C44 10.0577 44.0665 10.4023 44.2558 10.7561C44.4066 11.0382 44.622 11.2535 44.904 11.4044C45.2579 11.5936 45.6025 11.6602 46.5894 11.6602H61.4106C62.3975 11.6602 62.7421 11.5936 63.096 11.4044C63.378 11.2535 63.5934 11.0382 63.7442 10.7561C63.9335 10.4023 64 10.0577 64 9.07072V4.7496C64 3.76262 63.9335 3.41806 63.7442 3.06417C63.5934 2.78214 63.378 2.56679 63.096 2.41596C62.7421 2.22669 62.3975 2.16016 61.4106 2.16016H46.5894ZM67.5 6.85016C67.5 8.08673 66 8.85016 66 8.85016V4.85016C66 4.85016 67.5 5.61359 67.5 6.85016Z" fill="white"/>
<rect id="Rectangle_2" x="45" y="3.07666" width="18" height="7.66667" rx="1.6" fill="white"/>
</g>
<path id="Combined Shape" fill-rule="evenodd" clip-rule="evenodd" d="M14.623 2.56599C14.6 2.68191 14.6 2.8213 14.6 3.1001V10.8001C14.6 11.0789 14.6 11.2183 14.623 11.3342C14.7177 11.8102 15.0899 12.1824 15.5659 12.277C15.6818 12.3001 15.8212 12.3001 16.1 12.3001C16.3788 12.3001 16.5182 12.3001 16.6341 12.277C17.1101 12.1824 17.4822 11.8102 17.5769 11.3342C17.6 11.2183 17.6 11.0789 17.6 10.8001V3.1001C17.6 2.8213 17.6 2.68191 17.5769 2.56599C17.4822 2.08996 17.1101 1.71784 16.6341 1.62316C16.5182 1.6001 16.3788 1.6001 16.1 1.6001C15.8212 1.6001 15.6818 1.6001 15.5659 1.62316C15.0899 1.71784 14.7177 2.08996 14.623 2.56599ZM9.89999 5.5001C9.89999 5.22131 9.89999 5.08191 9.92305 4.96599C10.0177 4.48996 10.3899 4.11784 10.8659 4.02316C10.9818 4.0001 11.1212 4.0001 11.4 4.0001C11.6788 4.0001 11.8182 4.0001 11.9341 4.02316C12.4101 4.11784 12.7822 4.48996 12.8769 4.96599C12.9 5.08191 12.9 5.22131 12.9 5.5001V10.8001C12.9 11.0789 12.9 11.2183 12.8769 11.3342C12.7822 11.8102 12.4101 12.1824 11.9341 12.277C11.8182 12.3001 11.6788 12.3001 11.4 12.3001C11.1212 12.3001 10.9818 12.3001 10.8659 12.277C10.3899 12.1824 10.0177 11.8102 9.92305 11.3342C9.89999 11.2183 9.89999 11.0789 9.89999 10.8001V5.5001ZM5.32305 7.26599C5.29999 7.38191 5.29999 7.52131 5.29999 7.8001V10.8001C5.29999 11.0789 5.29999 11.2183 5.32305 11.3342C5.41773 11.8102 5.78985 12.1824 6.26588 12.277C6.3818 12.3001 6.52119 12.3001 6.79999 12.3001C7.07878 12.3001 7.21818 12.3001 7.3341 12.277C7.81012 12.1824 8.18224 11.8102 8.27693 11.3342C8.29999 11.2183 8.29999 11.0789 8.29999 10.8001V7.8001C8.29999 7.52131 8.29999 7.38191 8.27693 7.26599C8.18224 6.78997 7.81012 6.41785 7.3341 6.32316C7.21818 6.3001 7.07878 6.3001 6.79999 6.3001C6.52119 6.3001 6.3818 6.3001 6.26588 6.32316C5.78985 6.41785 5.41773 6.78997 5.32305 7.26599ZM0.523058 9.26599C0.5 9.38191 0.5 9.52131 0.5 9.8001V10.8001C0.5 11.0789 0.5 11.2183 0.523058 11.3342C0.617746 11.8102 0.989863 12.1824 1.46589 12.277C1.58181 12.3001 1.72121 12.3001 2 12.3001C2.27879 12.3001 2.41819 12.3001 2.53411 12.277C3.01014 12.1824 3.38225 11.8102 3.47694 11.3342C3.5 11.2183 3.5 11.0789 3.5 10.8001V9.8001C3.5 9.52131 3.5 9.38191 3.47694 9.26599C3.38225 8.78997 3.01014 8.41785 2.53411 8.32316C2.41819 8.3001 2.27879 8.3001 2 8.3001C1.72121 8.3001 1.58181 8.3001 1.46589 8.32316C0.989863 8.41785 0.617746 8.78997 0.523058 9.26599Z" fill="white"/>
<path id="Wi-Fi" fill-rule="evenodd" clip-rule="evenodd" d="M30.3004 3.69626C32.5348 3.69636 34.6838 4.55491 36.3031 6.09447C36.4251 6.21333 36.62 6.21183 36.7401 6.09111L37.9058 4.91469C37.9666 4.85346 38.0005 4.77053 38 4.68423C37.9995 4.59793 37.9646 4.5154 37.9031 4.45488C33.6527 0.381575 26.9474 0.381575 22.697 4.45488C22.6355 4.51535 22.6005 4.59786 22.6 4.68416C22.5994 4.77046 22.6333 4.85342 22.694 4.91469L23.86 6.09111C23.98 6.21201 24.1751 6.21351 24.297 6.09447C25.9165 4.55481 28.0658 3.69626 30.3004 3.69626ZM30.3004 7.52365C31.5281 7.52357 32.7119 7.97989 33.6219 8.80393C33.745 8.92088 33.9389 8.91834 34.0589 8.79821L35.2232 7.6218C35.2845 7.56009 35.3185 7.47638 35.3177 7.38939C35.3168 7.30241 35.281 7.21941 35.2185 7.15896C32.4473 4.58121 28.1558 4.58121 25.3847 7.15896C25.3221 7.21941 25.2863 7.30245 25.2855 7.38946C25.2847 7.47648 25.3188 7.56018 25.3803 7.6218L26.5443 8.79821C26.6642 8.91834 26.8581 8.92088 26.9812 8.80393C27.8906 7.98043 29.0735 7.52416 30.3004 7.52365ZM32.5379 10.3313C32.6002 10.2701 32.6345 10.186 32.6327 10.0988C32.6309 10.0116 32.5932 9.92895 32.5285 9.87043C31.2423 8.78253 29.3585 8.78253 28.0723 9.87043C28.0075 9.9289 27.9697 10.0115 27.9679 10.0987C27.9661 10.186 28.0003 10.2701 28.0625 10.3313L30.0769 12.3638C30.1359 12.4235 30.2164 12.4571 30.3004 12.4571C30.3844 12.4571 30.4649 12.4235 30.5239 12.3638L32.5379 10.3313Z" fill="white"/>
</g>
<defs>
<clipPath id="clip0_75_17006">
<rect width="68" height="13" fill="white" transform="translate(0.5 0.600098)"/>
</clipPath>
</defs>
</svg>
